<?xml version="1.0" encoding="UTF-8"?>
<svg id="Capa_1" data-name="Capa 1" xmlns="http://www.w3.org/2000/svg" viewBox="0 0 147 55">
  <defs>
    <style>
      .cls-1 {
        fill: #f2dd4c;
      }

      .cls-2 {
        fill: #010101;
      }
    </style>
  </defs>
  <g>
    <path class="cls-2" d="M56.36,19.75c0-.56-.32-.87-.87-.87h-1.51v-5.75h6.35c2.02,0,2.9,.87,2.9,2.9v4.8c0,1.03-.08,1.75-.08,1.75h.08s1.9-1.98,5.52-1.98c5.56,0,9.21,4.36,9.21,10.71s-4.09,10.67-9.52,10.67c-3.77,0-5.6-2.1-5.6-2.1h-.08s.04,.52,.04,1.15v.48h-6.43V19.75Zm10.67,16.55c2.14,0,4.01-1.75,4.01-4.88s-1.63-5.04-4.01-5.04c-2.06,0-4.01,1.51-4.01,5.04,0,2.46,1.31,4.88,4.01,4.88Z"/>
    <path class="cls-2" d="M81.44,27.69c0-.56-.32-.87-.87-.87h-1.51v-5.75h6.35c2.02,0,2.9,.87,2.9,2.9v10.91c0,.56,.32,.87,.87,.87h1.51v5.75h-6.35c-2.02,0-2.9-.87-2.9-2.9v-10.91Zm.52-14.56h5.75v5.56h-5.75v-5.56Z"/>
    <path class="cls-2" d="M94.03,27.69c0-.56-.32-.87-.87-.87h-1.51v-5.75h6.11c1.86,0,2.86,.91,2.86,2.3v.28c0,.2-.04,.48-.04,.48h.08c.95-1.59,2.86-3.53,6.47-3.53,4.13,0,7.34,1.9,7.34,7.66v6.63c0,.56,.32,.87,.87,.87h1.51v5.75h-6.35c-2.02,0-2.9-.87-2.9-2.9v-9.09c0-1.9-.75-2.7-2.26-2.7-2.14,0-3.45,1.19-4.05,2.94-.28,.79-.4,1.71-.4,2.7v9.05h-6.86v-13.81Z"/>
    <path class="cls-2" d="M127.21,20.59c4.13,0,5.36,1.43,5.36,1.43h.08s-.04-.4-.04-.91v-1.35c0-.56-.32-.87-.87-.87h-1.51v-5.75h6.35c2.02,0,2.9,.87,2.9,2.9v18.85c0,.56,.32,.87,.87,.87h1.51v5.75h-6.11c-1.94,0-2.66-.99-2.66-1.94v-.36h-.08s-1.71,2.78-5.91,2.78c-5.56,0-9.21-4.37-9.21-10.71s3.89-10.67,9.33-10.67Zm5.6,10.67c0-2.46-1.31-4.88-4.01-4.88-2.14,0-4.01,1.75-4.01,4.88s1.63,5.04,4.01,5.04c2.06,0,4.01-1.51,4.01-5.04Z"/>
  </g>
  <g>
    <polygon class="cls-1" points="25.55 22.77 21 14.78 25.55 6.79 30.1 14.78 25.55 22.77"/>
    <polygon class="cls-1" points="30.12 27.35 38.11 22.8 46.11 27.35 38.11 31.9 30.12 27.35"/>
    <polygon class="cls-1" points="28.78 30.58 37.65 33.01 40.08 41.88 31.22 39.45 28.78 30.58"/>
    <polygon class="cls-1" points="25.55 31.92 30.1 39.91 25.55 47.9 21 39.91 25.55 31.92"/>
    <polygon class="cls-1" points="22.32 30.58 19.88 39.45 11.01 41.88 13.45 33.01 22.32 30.58"/>
    <polygon class="cls-1" points="20.98 27.35 12.98 31.9 4.99 27.35 12.98 22.8 20.98 27.35"/>
    <polygon class="cls-1" points="22.32 24.11 13.45 21.68 11.01 12.81 19.88 15.24 22.32 24.11"/>
    <polygon class="cls-1" points="28.78 24.11 31.22 15.24 40.08 12.81 37.65 21.68 28.78 24.11"/>
  </g>
</svg>